[Header]
FileType HTR
DataType HTRS
FileVersion 1
NumSegments 64
NumFrames 4
DataFrameRate 24
EulerRotationOrder ZYX
CalibrationUnits mm
RotationUnits Degrees
GlobalAxisofGravity Y
BoneLengthAxis Y
ScaleFactor 1.0
[SegmentNames&Hierarchy]
Hips	GLOBAL
Spine	Hips
Spine1	Spine
Spine2	Spine1
Neck	Spine2
Head	Neck
LeftEye	Head
RightEye	Head
LeftShoulder	Spine2
LeftArm	LeftShoulder
LeftForeArm	LeftArm
LeftHand	LeftForeArm
LeftHandThumb1	LeftHand
LeftHandThumb2	LeftHandThumb1
LeftHandThumb3	LeftHandThumb2
LeftHandThumb4	LeftHandThumb3
LeftHandIndex1	LeftHand
LeftHandIndex2	LeftHandIndex1
LeftHandIndex3	LeftHandIndex2
LeftHandIndex4	LeftHandIndex3
LeftHandMiddle1	LeftHand
LeftHandMiddle2	LeftHandMiddle1
LeftHandMiddle3	LeftHandMiddle2
LeftHandMiddle4	LeftHandMiddle3
LeftHandRing1	LeftHand
LeftHandRing2	LeftHandRing1
LeftHandRing3	LeftHandRing2
LeftHandRing4	LeftHandRing3
LeftHandPinky1	LeftHand
LeftHandPinky2	LeftHandPinky1
LeftHandPinky3	LeftHandPinky2
LeftHandPinky4	LeftHandPinky3
RightShoulder	Spine2
RightArm	RightShoulder
RightForeArm	RightArm
RightHand	RightForeArm
RightHandPinky1	RightHand
RightHandPinky2	RightHandPinky1
RightHandPinky3	RightHandPinky2
RightHandPinky4	RightHandPinky3
RightHandRing1	RightHand
RightHandRing2	RightHandRing1
RightHandRing3	RightHandRing2
RightHandRing4	RightHandRing3
RightHandMiddle1	RightHand
RightHandMiddle2	RightHandMiddle1
RightHandMiddle3	RightHandMiddle2
RightHandMiddle4	RightHandMiddle3
RightHandIndex1	RightHand
RightHandIndex2	RightHandIndex1
RightHandIndex3	RightHandIndex2
RightHandIndex4	RightHandIndex3
RightHandThumb1	RightHand
RightHandThumb2	RightHandThumb1
RightHandThumb3	RightHandThumb2
RightHandThumb4	RightHandThumb3
LeftUpLeg	Hips
LeftLeg	LeftUpLeg
LeftFoot	LeftLeg
LeftToeBase	LeftFoot
RightUpLeg	Hips
RightLeg	RightUpLeg
RightFoot	RightLeg
RightToeBase	RightFoot
[BasePosition]
Hips	0	0	0	0	0	0	1
Spine	0	0	0	0	0	0	1
Spine1	0	0	0	0	0	0	1
Spine2	0	0	0	0	0	0	1
Neck	0	0	0	0	0	0	1
Head	0	0	0	0	0	0	1
LeftEye	0	0	0	0	0	0	1
RightEye	0	0	0	0	0	0	1
LeftShoulder	0	0	0	0	0	0	1
LeftArm	0	0	0	0	0	0	1
LeftForeArm	0	0	0	0	0	0	1
LeftHand	0	0	0	0	0	0	1
LeftHandThumb1	0	0	0	0	0	0	1
LeftHandThumb2	0	0	0	0	0	0	1
LeftHandThumb3	0	0	0	0	0	0	1
LeftHandThumb4	0	0	0	0	0	0	1
LeftHandIndex1	0	0	0	0	0	0	1
LeftHandIndex2	0	0	0	0	0	0	1
LeftHandIndex3	0	0	0	0	0	0	1
LeftHandIndex4	0	0	0	0	0	0	1
LeftHandMiddle1	0	0	0	0	0	0	1
LeftHandMiddle2	0	0	0	0	0	0	1
LeftHandMiddle3	0	0	0	0	0	0	1
LeftHandMiddle4	0	0	0	0	0	0	1
LeftHandRing1	0	0	0	0	0	0	1
LeftHandRing2	0	0	0	0	0	0	1
LeftHandRing3	0	0	0	0	0	0	1
LeftHandRing4	0	0	0	0	0	0	1
LeftHandPinky1	0	0	0	0	0	0	1
LeftHandPinky2	0	0	0	0	0	0	1
LeftHandPinky3	0	0	0	0	0	0	1
LeftHandPinky4	0	0	0	0	0	0	1
RightShoulder	0	0	0	0	0	0	1
RightArm	0	0	0	0	0	0	1
RightForeArm	0	0	0	0	0	0	1
RightHand	0	0	0	0	0	0	1
RightHandPinky1	0	0	0	0	0	0	1
RightHandPinky2	0	0	0	0	0	0	1
RightHandPinky3	0	0	0	0	0	0	1
RightHandPinky4	0	0	0	0	0	0	1
RightHandRing1	0	0	0	0	0	0	1
RightHandRing2	0	0	0	0	0	0	1
RightHandRing3	0	0	0	0	0	0	1
RightHandRing4	0	0	0	0	0	0	1
RightHandMiddle1	0	0	0	0	0	0	1
RightHandMiddle2	0	0	0	0	0	0	1
RightHandMiddle3	0	0	0	0	0	0	1
RightHandMiddle4	0	0	0	0	0	0	1
RightHandIndex1	0	0	0	0	0	0	1
RightHandIndex2	0	0	0	0	0	0	1
RightHandIndex3	0	0	0	0	0	0	1
RightHandIndex4	0	0	0	0	0	0	1
RightHandThumb1	0	0	0	0	0	0	1
RightHandThumb2	0	0	0	0	0	0	1
RightHandThumb3	0	0	0	0	0	0	1
RightHandThumb4	0	0	0	0	0	0	1
LeftUpLeg	0	0	0	0	0	0	1
LeftLeg	0	0	0	0	0	0	1
LeftFoot	0	0	0	0	0	0	1
LeftToeBase	0	0	0	0	0	0	1
RightUpLeg	0	0	0	0	0	0	1
RightLeg	0	0	0	0	0	0	1
RightFoot	0	0	0	0	0	0	1
RightToeBase	0	0	0	0	0	0	1
[Hips]
62	5.761413097	1006.679749	-2.813402414	-3.025639534	1.927081466	1.94732821	1.0
63	5.75082016	1004.661194	-3.861148834	-3.470957279	1.482010841	1.932748079	1.0
64	5.030194283	993.5952759	-7.19715023	-4.717924118	1.020795584	1.788079977	1.0
65	3.818783283	978.3432007	-11.43140793	-6.285836697	0.531353116	1.621919274	1.0
[Spine]
62	9.234152094e-05	101.8158798	1.31520927	-2.415564537	-2.337320089	1.168321609	1.0
63	9.234152094e-05	101.8158798	1.31520927	-2.176137447	-2.441460133	1.602975368	1.0
64	9.234152094e-05	101.8158798	1.31520927	-1.059670448	-2.589606762	2.108886957	1.0
65	9.234152094e-05	101.8158798	1.31520927	0.4856598377	-2.718718529	2.635079861	1.0
[Spine1]
62	2.519402869e-06	100.8345108	-10.00804329	-0.130027473	-0.7022330165	0.3040336072	1.0
63	2.519402869e-06	100.8345108	-10.00804329	0.02878489345	-0.725977838	0.4065278769	1.0
64	2.519402869e-06	100.8345108	-10.00804329	0.366700232	-0.7544003725	0.5481271744	1.0
65	2.519402869e-06	100.8345108	-10.00804329	0.7781804204	-0.774953723	0.6999692917	1.0
[Spine2]
62	3.4574864e-06	91.00010681	-13.73417091	-0.1328942627	-0.7004260421	0.303842485	1.0
63	3.4574864e-06	91.00010681	-13.73417091	0.0252462253	-0.7216504216	0.4081147909	1.0
64	3.4574864e-06	91.00010681	-13.73417091	0.3621944189	-0.7467660904	0.5533969402	1.0
65	3.4574864e-06	91.00010681	-13.73417091	0.7726908922	-0.7637797594	0.7093074322	1.0
[Neck]
62	6.334285445e-06	166.7166901	-25.16167831	9.715227127	0.3182741404	-0.7863566875	1.0
63	6.334285445e-06	166.7166901	-25.16167831	9.441198349	0.3665144742	-0.8118783236	1.0
64	6.334285445e-06	166.7166901	-25.16167831	9.099588394	0.4185906649	-0.8387807608	1.0
65	6.334285445e-06	166.7166901	-25.16167831	8.721100807	0.474204272	-0.8634402156	1.0
[Head]
62	-4.242318937e-06	96.17874908	16.85007477	13.12226105	-1.65711832	-4.205116272	1.0
63	-4.242318937e-06	96.17874908	16.85007477	13.28683186	-1.460903525	-5.157544613	1.0
64	-4.242318937e-06	96.17874908	16.85007477	13.02691078	-1.084877849	-6.303700447	1.0
65	-4.242318937e-06	96.17874908	16.85007477	12.52885628	-0.6098450422	-7.61359024	1.0
[LeftEye]
62	30.67560577	64.09507751	92.83554077	0	0	0	1.0
63	30.67560577	64.09507751	92.83554077	0	0	0	1.0
64	30.67560577	64.09507751	92.83554077	0	0	0	1.0
65	30.67560577	64.09507751	92.83554077	0	0	0	1.0
[RightEye]
62	-30.67550468	64.09500122	92.83547211	0	0	0	1.0
63	-30.67550468	64.09500122	92.83547211	0	0	0	1.0
64	-30.67550468	64.09500122	92.83547211	0	0	0	1.0
65	-30.67550468	64.09500122	92.83547211	0	0	0	1.0
[LeftShoulder]
62	45.70446396	109.4598465	-26.27988052	24.8127594	0.5821202993	6.166044712	1.0
63	45.70446396	109.4598465	-26.27988052	23.98835754	-0.7505722642	2.355093956	1.0
64	45.70446396	109.4598465	-26.27988052	23.0593605	-3.081289291	-2.919699669	1.0
65	45.70446396	109.4598465	-26.27988052	21.96274376	-6.010338783	-9.03334713	1.0
[LeftArm]
62	105.9236984	-5.245829105	-22.32120132	-97.09651184	-9.932455063	53.90124512	1.0
63	105.9236984	-5.245829105	-22.32120132	-92.25666809	-15.18590355	51.94631958	1.0
64	105.9236984	-5.245829105	-22.32120132	-84.82756042	-22.26545715	48.73544312	1.0
65	105.9236984	-5.245829105	-22.32120132	-75.36985016	-29.45157623	44.06018829	1.0
[LeftForeArm]
62	278.4151917	-0.0008942864952	0.0003745891154	-11.53222179	-51.49534225	20.30309105	1.0
63	278.4151917	-0.0008942864952	0.0003745891154	8.051380157	-43.50764847	16.73693657	1.0
64	278.4151917	-0.0008942864952	0.0003745891154	29.00727654	-44.83803177	8.938539505	1.0
65	278.4151917	-0.0008942864952	0.0003745891154	40.80044937	-56.63598251	-3.003782034	1.0
[LeftHand]
62	283.2883911	-0.0001744071778	0.0003780452244	-43.18489075	-13.89348984	14.36240768	1.0
63	283.2883911	-0.0001744071778	0.0003780452244	-42.25218964	-13.74454212	11.33578777	1.0
64	283.2883911	-0.0001744071778	0.0003780452244	-41.87239838	-13.57139587	8.349269867	1.0
65	283.2883911	-0.0001744071778	0.0003780452244	-41.74057388	-13.18318176	5.31726265	1.0
[LeftHandThumb1]
62	24.66140366	-15.7504921	26.82413483	-3.482387304	-1.299135089	4.822375298	1.0
63	24.66140366	-15.7504921	26.82413483	-6.421218395	-1.362080097	1.861838579	1.0
64	24.66140366	-15.7504921	26.82413483	-9.773649216	-1.521723747	-1.64796114	1.0
65	24.66140366	-15.7504921	26.82413483	-13.13724136	-1.715990543	-5.221399307	1.0
[LeftHandThumb2]
62	32.29803848	-18.6469059	18.64681244	23.12057495	20.78744316	28.58045578	1.0
63	32.29803848	-18.6469059	18.64681244	24.00463486	22.98848152	28.41090584	1.0
64	32.29803848	-18.6469059	18.64681244	25.0229435	25.58937073	28.27037811	1.0
65	32.29803848	-18.6469059	18.64681244	26.0491333	28.23433685	28.15051079	1.0
[LeftHandThumb3]
62	26.52565002	-15.31492996	15.31471634	1.556477427	16.99083519	16.58241653	1.0
63	26.52565002	-15.31492996	15.31471634	-0.9093749523	17.88801384	14.06509304	1.0
64	26.52565002	-15.31492996	15.31471634	-3.770206213	18.87365532	11.0696764	1.0
65	26.52565002	-15.31492996	15.31471634	-6.659371853	19.84796524	8.015845299	1.0
[LeftHandThumb4]
62	19.54566956	-11.2850008	11.28492165	0	0	0	1.0
63	19.54566956	-11.2850008	11.28492165	0	0	0	1.0
64	19.54566956	-11.2850008	11.28492165	0	0	0	1.0
65	19.54566956	-11.2850008	11.28492165	0	0	0	1.0
[LeftHandIndex1]
62	91.09301758	-5.170834064	22.6007309	-0.6910052299	4.443548203	-21.95238304	1.0
63	91.09301758	-5.170834064	22.6007309	-1.846300483	4.992032051	-33.25190735	1.0
64	91.09301758	-5.170834064	22.6007309	-3.311994791	5.489496708	-46.4437294	1.0
65	91.09301758	-5.170834064	22.6007309	-4.837872028	5.936762333	-59.79931641	1.0
[LeftHandIndex2]
62	36.76409531	-6.939138257e-05	0.0002924251603	0.8292277455	1.687422514	-18.46789169	1.0
63	36.76409531	-6.939138257e-05	0.0002924251603	0.1742340326	2.333659649	-25.79512405	1.0
64	36.76409531	-6.939138257e-05	0.0002924251603	-0.6573170424	3.060735464	-34.35948563	1.0
65	36.76409531	-6.939138257e-05	0.0002924251603	-1.524470329	3.785506248	-43.03364944	1.0
[LeftHandIndex3]
62	28.83062553	0.000385119667	-0.0004276481632	0.7853447199	0.9089724422	-8.747887611	1.0
63	28.83062553	0.000385119667	-0.0004276481632	0.525980711	1.733774304	-16.52867508	1.0
64	28.83062553	0.000385119667	-0.0004276481632	0.143119812	2.676449776	-25.60452271	1.0
65	28.83062553	0.000385119667	-0.0004276481632	-0.2748910785	3.622110367	-34.79026413	1.0
[LeftHandIndex4]
62	23.92720032	0.0003702590766	0.0003355443478	0	0	0	1.0
63	23.92720032	0.0003702590766	0.0003355443478	0	0	0	1.0
64	23.92720032	0.0003702590766	0.0003355443478	0	0	0	1.0
65	23.92720032	0.0003702590766	0.0003355443478	0	0	0	1.0
[LeftHandMiddle1]
62	95.33401489	-0.000339240476	0.0001393702551	-1.701086283	4.980607033	-21.93984032	1.0
63	95.33401489	-0.000339240476	0.0001393702551	-3.31751585	5.825500011	-33.02696228	1.0
64	95.33401489	-0.000339240476	0.0001393702551	-5.317572594	6.67387867	-45.97920227	1.0
65	95.33401489	-0.000339240476	0.0001393702551	-7.38313961	7.478281975	-59.09552002	1.0
[LeftHandMiddle2]
62	36.98236847	1.961359158e-05	0.0001791696704	-0.9774232507	3.101421595	-27.34161186	1.0
63	36.98236847	1.961359158e-05	0.0001791696704	-1.397505641	3.948625565	-38.2408638	1.0
64	36.98236847	1.961359158e-05	0.0001791696704	-2.020318985	4.850429535	-50.9903717	1.0
65	36.98236847	1.961359158e-05	0.0001791696704	-2.699800014	5.727885723	-63.90707779	1.0
[LeftHandMiddle3]
62	29.50921631	-0.0003937608562	0.0001644795993	0.02392406389	1.045537829	-10.56006336	1.0
63	29.50921631	-0.0003937608562	0.0001644795993	-0.339639008	1.809776902	-19.09708214	1.0
64	29.50921631	-0.0003937608562	0.0001644795993	-0.8589715958	2.674277306	-29.05522156	1.0
65	29.50921631	-0.0003937608562	0.0001644795993	-1.420660257	3.537650585	-39.13400269	1.0
[LeftHandMiddle4]
62	28.3390255	-0.0003893481917	-9.504223272e-05	0	0	0	1.0
63	28.3390255	-0.0003893481917	-9.504223272e-05	0	0	0	1.0
64	28.3390255	-0.0003893481917	-9.504223272e-05	0	0	0	1.0
65	28.3390255	-0.0003893481917	-9.504223272e-05	0	0	0	1.0
[LeftHandRing1]
62	91.04527283	-0.4393950403	-18.65084648	-5.147659779	6.313317776	-24.5105114	1.0
63	91.04527283	-0.4393950403	-18.65084648	-7.11943531	7.140625477	-36.80371475	1.0
64	91.04527283	-0.4393950403	-18.65084648	-9.549583435	7.931262016	-51.16912079	1.0
65	91.04527283	-0.4393950403	-18.65084648	-12.05530262	8.662635803	-65.71776581	1.0
[LeftHandRing2]
62	31.54026794	-6.55346812e-05	0.000104257444	-3.192334414	4.065563679	-31.3514576	1.0
63	31.54026794	-6.55346812e-05	0.000104257444	-3.085161686	4.951595306	-43.86234283	1.0
64	31.54026794	-6.55346812e-05	0.000104257444	-3.123334408	5.85641861	-58.50631332	1.0
65	31.54026794	-6.55346812e-05	0.000104257444	-3.221476078	6.720147133	-73.34547424	1.0
[LeftHandRing3]
62	29.37672424	-0.0004545861739	-6.864757597e-05	-0.9905647039	1.916082978	-9.731768608	1.0
63	29.37672424	-0.0004545861739	-6.864757597e-05	-0.5059834719	2.644662857	-17.30418777	1.0
64	29.37672424	-0.0004545861739	-6.864757597e-05	-0.0170122385	3.475414753	-26.13782501	1.0
65	29.37672424	-0.0004545861739	-6.864757597e-05	0.4489024282	4.308002949	-35.07871246	1.0
[LeftHandRing4]
62	26.47452545	-0.0004980441299	7.070515267e-07	0	0	0	1.0
63	26.47452545	-0.0004980441299	7.070515267e-07	0	0	0	1.0
64	26.47452545	-0.0004980441299	7.070515267e-07	0	0	0	1.0
65	26.47452545	-0.0004980441299	7.070515267e-07	0	0	0	1.0
[LeftHandPinky1]
62	80.77777863	-4.886682034	-38.06066895	-10.81291008	7.535736084	-28.03229332	1.0
63	80.77777863	-4.886682034	-38.06066895	-13.07428265	8.135558128	-41.49717331	1.0
64	80.77777863	-4.886682034	-38.06066895	-15.85090351	8.617660522	-57.22941971	1.0
65	80.77777863	-4.886682034	-38.06066895	-18.70917511	9.020084381	-73.16092682	1.0
[LeftHandPinky2]
62	36.00034332	-2.252215199e-05	-0.0002623879409	0.9600545764	3.588788748	-27.13535881	1.0
63	36.00034332	-2.252215199e-05	-0.0002623879409	0.8380166292	4.953686714	-37.95745087	1.0
64	36.00034332	-2.252215199e-05	-0.0002623879409	0.5640246868	6.461872101	-50.625	1.0
65	36.00034332	-2.252215199e-05	-0.0002623879409	0.2378901392	7.954009056	-63.46212006	1.0
[LeftHandPinky3]
62	21.14211655	0.0001953828178	-2.864415183e-05	-3.090432405	2.874631882	-13.69280434	1.0
63	21.14211655	0.0001953828178	-2.864415183e-05	-2.78660059	3.272234917	-21.2436161	1.0
64	21.14211655	0.0001953828178	-2.864415183e-05	-2.506146908	3.711987495	-30.05150986	1.0
65	21.14211655	0.0001953828178	-2.864415183e-05	-2.250313044	4.146987438	-38.96601105	1.0
[LeftHandPinky4]
62	19.7568264	0.0001240565616	-0.0004430140834	0	0	0	1.0
63	19.7568264	0.0001240565616	-0.0004430140834	0	0	0	1.0
64	19.7568264	0.0001240565616	-0.0004430140834	0	0	0	1.0
65	19.7568264	0.0001240565616	-0.0004430140834	0	0	0	1.0
[RightShoulder]
62	-45.69969559	109.4617615	-26.28017426	29.36885262	28.03572845	-18.75491905	1.0
63	-45.69969559	109.4617615	-26.28017426	26.79474831	25.84542084	-12.64695358	1.0
64	-45.69969559	109.4617615	-26.28017426	23.33175659	22.69090652	-3.603052139	1.0
65	-45.69969559	109.4617615	-26.28017426	19.35565567	19.05375862	6.587132454	1.0
[RightArm]
62	-105.9284363	-5.247983932	-22.32098579	-85.12667847	-12.3008604	-39.28749466	1.0
63	-105.9284363	-5.247983932	-22.32098579	-81.86837006	-4.069369316	-38.37042999	1.0
64	-105.9284363	-5.247983932	-22.32098579	-77.38696289	7.807005882	-37.45153427	1.0
65	-105.9284363	-5.247983932	-22.32098579	-71.05741119	21.05565071	-35.6042099	1.0
[RightForeArm]
62	-278.4151917	-0.0003307921579	0.0001167631053	-8.354825974	51.81662369	-8.938438416	1.0
63	-278.4151917	-0.0003307921579	0.0001167631053	2.059052229	52.68965912	-6.004076004	1.0
64	-278.4151917	-0.0003307921579	0.0001167631053	13.82290077	59.31396484	0.5324447155	1.0
65	-278.4151917	-0.0003307921579	0.0001167631053	27.16591644	67.6601944	10.83749104	1.0
[RightHand]
62	-283.2883911	-1.581417109e-06	0.000558160129	-44.86172867	27.76975441	-19.2662735	1.0
63	-283.2883911	-1.581417109e-06	0.000558160129	-44.70610046	26.79290771	-17.57219887	1.0
64	-283.2883911	-1.581417109e-06	0.000558160129	-44.43276215	25.29063416	-15.74879265	1.0
65	-283.2883911	-1.581417109e-06	0.000558160129	-44.07942963	23.40744781	-13.66644287	1.0
[RightHandPinky1]
62	-80.76674652	-4.88459301	-38.06010437	-7.203089714	-4.780311584	1.400307417	1.0
63	-80.76674652	-4.88459301	-38.06010437	-9.788137436	-5.46312809	18.78081894	1.0
64	-80.76674652	-4.88459301	-38.06010437	-13.43803024	-6.36779213	43.09227753	1.0
65	-80.76674652	-4.88459301	-38.06010437	-17.29645157	-7.313237667	68.73121643	1.0
[RightHandPinky2]
62	-36.00034332	0.0003967665543	0.0005081442068	0.3988739848	-0.1966108829	6.139311314	1.0
63	-36.00034332	0.0003967665543	0.0005081442068	0.4905153513	-1.799463272	20.16876602	1.0
64	-36.00034332	0.0003967665543	0.0005081442068	0.5869746208	-4.027151108	39.80810928	1.0
65	-36.00034332	0.0003967665543	0.0005081442068	0.6820499301	-6.375614643	60.52347565	1.0
[RightHandPinky3]
62	-21.14211655	0.0001513792522	0.0001479376951	-4.151542187	-1.946180105	-1.013561606	1.0
63	-21.14211655	0.0001513792522	0.0001479376951	-3.642085552	-2.290165901	8.770288467	1.0
64	-21.14211655	0.0001513792522	0.0001479376951	-2.945647955	-2.76783514	22.46292114	1.0
65	-21.14211655	0.0001513792522	0.0001479376951	-2.214082718	-3.271664619	36.90471649	1.0
[RightHandPinky4]
62	-19.7568264	-0.000185219571	-9.839841368e-06	0	0	0	1.0
63	-19.7568264	-0.000185219571	-9.839841368e-06	0	0	0	1.0
64	-19.7568264	-0.000185219571	-9.839841368e-06	0	0	0	1.0
65	-19.7568264	-0.000185219571	-9.839841368e-06	0	0	0	1.0
[RightHandRing1]
62	-91.03588104	-0.4391434789	-18.65072441	-2.056044102	-3.406810045	0.02940512076	1.0
63	-91.03588104	-0.4391434789	-18.65072441	-4.311955452	-4.355312824	15.91688633	1.0
64	-91.03588104	-0.4391434789	-18.65072441	-7.500155449	-5.642588615	38.151474	1.0
65	-91.03588104	-0.4391434789	-18.65072441	-10.87077236	-6.994111061	61.60329056	1.0
[RightHandRing2]
62	-31.54026794	0.0002399729856	0.0004885121016	-4.374322891	-1.307176709	7.151727676	1.0
63	-31.54026794	0.0002399729856	0.0004885121016	-3.918487787	-2.305004358	23.34964943	1.0
64	-31.54026794	0.0002399729856	0.0004885121016	-3.320653677	-3.677364826	46.01419067	1.0
65	-31.54026794	0.0002399729856	0.0004885121016	-2.699087858	-5.122671127	69.91849518	1.0
[RightHandRing3]
62	-29.37672424	-0.0004160065437	-0.0003966063377	-2.413165331	-0.454462409	-5.042925358	1.0
63	-29.37672424	-0.0004160065437	-0.0003966063377	-1.681634903	-1.219210148	4.777864456	1.0
64	-29.37672424	-0.0004160065437	-0.0003966063377	-0.6751550436	-2.286996841	18.52217865	1.0
65	-29.37672424	-0.0004160065437	-0.0003966063377	0.383302927	-3.413487196	33.01840591	1.0
[RightHandRing4]
62	-26.47452545	0.0002460821415	-2.294923434e-05	0	0	0	1.0
63	-26.47452545	0.0002460821415	-2.294923434e-05	0	0	0	1.0
64	-26.47452545	0.0002460821415	-2.294923434e-05	0	0	0	1.0
65	-26.47452545	0.0002460821415	-2.294923434e-05	0	0	0	1.0
[RightHandMiddle1]
62	-95.32502747	-0.0001631230261	0.0001679184206	0.7803126574	-2.288220644	-0.2507639825	1.0
63	-95.32502747	-0.0001631230261	0.0001679184206	-1.059667826	-3.242728472	14.08627129	1.0
64	-95.32502747	-0.0001631230261	0.0001679184206	-3.661728859	-4.546771049	34.1500473	1.0
65	-95.32502747	-0.0001631230261	0.0001679184206	-6.412713051	-5.917647839	55.31241226	1.0
[RightHandMiddle2]
62	-36.98236847	0.000150669599	-0.0002254552383	-0.9674341083	-0.7115000486	6.135435581	1.0
63	-36.98236847	0.000150669599	-0.0002254552383	-1.258036494	-1.643456459	20.2651329	1.0
64	-36.98236847	0.000150669599	-0.0002254552383	-1.695937872	-2.931493282	40.04301071	1.0
65	-36.98236847	0.000150669599	-0.0002254552383	-2.164381027	-4.288704872	60.90453339	1.0
[RightHandMiddle3]
62	-29.50921631	-3.113244929e-06	-3.03402544e-06	0.1414876133	0.5097702146	-6.092764378	1.0
63	-29.50921631	-3.113244929e-06	-3.03402544e-06	-0.199773103	-0.2841278315	4.974982262	1.0
64	-29.50921631	-3.113244929e-06	-3.03402544e-06	-0.6989252567	-1.390477419	20.46084213	1.0
65	-29.50921631	-3.113244929e-06	-3.03402544e-06	-1.229402542	-2.557358503	36.79294968	1.0
[RightHandMiddle4]
62	-28.3390255	8.05324089e-05	0.0005378770875	0	0	0	1.0
63	-28.3390255	8.05324089e-05	0.0005378770875	0	0	0	1.0
64	-28.3390255	8.05324089e-05	0.0005378770875	0	0	0	1.0
65	-28.3390255	8.05324089e-05	0.0005378770875	0	0	0	1.0
[RightHandIndex1]
62	-91.08280945	-5.167889595	22.60116386	0.8667815328	-2.296623707	-0.7061536312	1.0
63	-91.08280945	-5.167889595	22.60116386	-0.3694488108	-2.866383553	13.90652466	1.0
64	-91.08280945	-5.167889595	22.60116386	-2.127285004	-3.631794214	34.35401917	1.0
65	-91.08280945	-5.167889595	22.60116386	-3.987983704	-4.43513155	55.92111588	1.0
[RightHandIndex2]
62	-36.76409531	0.0001922715601	0.0003235567128	1.688073754	-0.1394240558	4.141911983	1.0
63	-36.76409531	0.0001922715601	0.0003235567128	0.9641776085	-0.8205295801	13.65478516	1.0
64	-36.76409531	0.0001922715601	0.0003235567128	-0.06430804729	-1.768503428	26.97244644	1.0
65	-36.76409531	0.0001922715601	0.0003235567128	-1.152006507	-2.767994881	41.02027512	1.0
[RightHandIndex3]
62	-28.83062553	-0.0004960121587	0.0004044897505	0.7937441468	0.7090936899	-6.463434696	1.0
63	-28.83062553	-0.0004960121587	0.0004044897505	0.5633580685	-0.1739862561	3.630935431	1.0
64	-28.83062553	-0.0004960121587	0.0004044897505	0.2227015495	-1.406767607	17.75793457	1.0
65	-28.83062553	-0.0004960121587	0.0004044897505	-0.1399310976	-2.707121372	32.65773773	1.0
[RightHandIndex4]
62	-23.92720032	0.0002681470069	0.0002802013478	0	0	0	1.0
63	-23.92720032	0.0002681470069	0.0002802013478	0	0	0	1.0
64	-23.92720032	0.0002681470069	0.0002802013478	0	0	0	1.0
65	-23.92720032	0.0002681470069	0.0002802013478	0	0	0	1.0
[RightHandThumb1]
62	-24.64805984	-15.72714233	26.82626534	1.676747203	3.422431231	-9.643691063	1.0
63	-24.64805984	-15.72714233	26.82626534	-2.16210103	3.61482811	-5.973194122	1.0
64	-24.64805984	-15.72714233	26.82626534	-7.513613701	3.909537554	-0.8190360069	1.0
65	-24.64805984	-15.72714233	26.82626534	-13.15520287	4.224599838	4.620766163	1.0
[RightHandThumb2]
62	-32.29771805	-18.6470871	18.64718437	22.81794739	-18.2270565	-30.58358955	1.0
63	-32.29771805	-18.6470871	18.64718437	23.96180344	-21.07115173	-30.37184334	1.0
64	-32.29771805	-18.6470871	18.64718437	25.55930328	-25.06130981	-30.09110641	1.0
65	-32.29771805	-18.6470871	18.64718437	27.24444008	-29.271492	-29.79840851	1.0
[RightHandThumb3]
62	-26.52605057	-15.31449318	15.31445599	10.40514851	-20.01795006	-23.43736076	1.0
63	-26.52605057	-15.31449318	15.31445599	7.104130745	-21.25088882	-19.89389229	1.0
64	-26.52605057	-15.31449318	15.31445599	2.485274076	-22.95662308	-14.91617012	1.0
65	-26.52605057	-15.31449318	15.31445599	-2.386063337	-24.75349045	-9.663028717	1.0
[RightHandThumb4]
62	-19.54580498	-11.28461742	11.28507042	0	0	0	1.0
63	-19.54580498	-11.28461742	11.28507042	0	0	0	1.0
64	-19.54580498	-11.28461742	11.28507042	0	0	0	1.0
65	-19.54580498	-11.28461742	11.28507042	0	0	0	1.0
[LeftUpLeg]
62	82.07781982	-67.51714325	-15.99555588	-9.619308472	9.542591095	6.837108135	1.0
63	82.07781982	-67.51714325	-15.99555588	-9.504089355	10.66664314	7.212878704	1.0
64	82.07781982	-67.51714325	-15.99555588	-10.26854706	11.87082863	8.203428268	1.0
65	82.07781982	-67.51714325	-15.99555588	-11.42757416	13.09212494	9.430695534	1.0
[LeftLeg]
62	-4.110157988e-06	-443.7047119	2.846426487	26.56872177	7.099412918	-1.459035277	1.0
63	-4.110157988e-06	-443.7047119	2.846426487	27.5431633	6.590548515	-2.010229111	1.0
64	-4.110157988e-06	-443.7047119	2.846426487	31.8329792	6.020319939	-2.673291206	1.0
65	-4.110157988e-06	-443.7047119	2.846426487	37.55289459	5.463206768	-3.359035492	1.0
[LeftFoot]
62	4.716393505e-06	-444.278717	-29.82190704	-11.58784294	0.4476430714	-3.77902317	1.0
63	4.716393505e-06	-444.278717	-29.82190704	-12.12031364	0.3881070018	-3.614496469	1.0
64	4.716393505e-06	-444.278717	-29.82190704	-14.21162128	0.1548267901	-3.498506069	1.0
65	4.716393505e-06	-444.278717	-29.82190704	-16.97429657	-0.1534647942	-3.416285276	1.0
[LeftToeBase]
62	-2.960988058e-05	-87.28669739	107.1055984	-3.782894135	-8.492882444e-06	1.771740131e-06	1.0
63	-2.960988058e-05	-87.28669739	107.1055984	-3.683794498	-4.476216873e-06	1.446308374e-06	1.0
64	-2.960988058e-05	-87.28669739	107.1055984	-3.55022049	2.410119123e-06	7.076687325e-07	1.0
65	-2.960988058e-05	-87.28669739	107.1055984	-3.408456802	9.406729077e-06	-4.585945135e-08	1.0
[RightUpLeg]
62	-82.07795715	-67.51662445	-15.99559402	-17.19288635	-22.68737411	-5.80244112	1.0
63	-82.07795715	-67.51662445	-15.99559402	-17.23805809	-22.20771027	-5.824903488	1.0
64	-82.07795715	-67.51662445	-15.99559402	-17.96226883	-21.80290413	-5.988484383	1.0
65	-82.07795715	-67.51662445	-15.99559402	-19.05256271	-21.42353439	-6.225089073	1.0
[RightLeg]
62	8.435572454e-07	-443.7053833	2.861563921	27.60682678	-3.697420597	-12.84141827	1.0
63	8.435572454e-07	-443.7053833	2.861563921	28.36115646	-3.429111242	-12.8243103	1.0
64	8.435572454e-07	-443.7053833	2.861563921	31.93199348	-2.466891289	-12.88120365	1.0
65	8.435572454e-07	-443.7053833	2.861563921	36.78558731	-1.175694227	-12.9413929	1.0
[RightFoot]
62	9.644581951e-06	-444.2773132	-29.83789063	-1.163927794	-1.918553352	11.18571091	1.0
63	9.644581951e-06	-444.2773132	-29.83789063	-1.873224854	-2.32592845	11.26521492	1.0
64	9.644581951e-06	-444.2773132	-29.83789063	-4.520522118	-2.527426243	11.68720436	1.0
65	9.644581951e-06	-444.2773132	-29.83789063	-7.973515987	-2.627736568	12.29094791	1.0
[RightToeBase]
62	-2.360438157e-05	-87.28668976	107.1056061	-2.81875205	0.0557330884	1.343641162	1.0
63	-2.360438157e-05	-87.28668976	107.1056061	-2.476433754	0.04052811116	1.417542934	1.0
64	-2.360438157e-05	-87.28668976	107.1056061	-1.550441265	0.01212308183	1.385809064	1.0
65	-2.360438157e-05	-87.28668976	107.1056061	-0.4611061811	-0.01788414083	1.254689693	1.0
[EndOfFile]
